HIERARCHY
ROOT Hips
{
	OFFSET 0.327225 85.456291 8.060652
	CHANNELS 6 Xposition Yposition Zposition Zrotation Yrotation Xrotation 
	JOINT Spine
	{
		OFFSET 0.000000 8.814246 -2.080107
		CHANNELS 3 Zrotation Yrotation Xrotation
		JOINT Spine1
		{
			OFFSET -0.000000 8.844141 0.000000
			CHANNELS 3 Zrotation Yrotation Xrotation
			JOINT Spine2
			{
				OFFSET 0.000000 11.682268 0.000000
				CHANNELS 3 Zrotation Yrotation Xrotation
				JOINT Spine3
				{
					OFFSET 0.000000 11.746700 0.000000
					CHANNELS 3 Zrotation Yrotation Xrotation
					JOINT Neck
					{
						OFFSET 0.000000 17.658264 0.000000
						CHANNELS 3 Zrotation Yrotation Xrotation
						JOINT Neck1
						{
							OFFSET 0.000000 5.101515 0.000000
							CHANNELS 3 Zrotation Yrotation Xrotation
							JOINT Head
							{
								OFFSET -0.000000 5.101515 -0.000000
								CHANNELS 3 Zrotation Yrotation Xrotation
								JOINT HeadEnd
								{
									OFFSET 0.000000 11.655085 0.000000
									CHANNELS 3 Zrotation Yrotation Xrotation
									End Site
									{
										OFFSET 0.000000 0.000000 0.000000
									}
								}
							}
						}
					}
					JOINT RightShoulder
					{
						OFFSET -2.625389 11.175210 -0.000000
						CHANNELS 3 Zrotation Yrotation Xrotation
						JOINT RightArm
						{
							OFFSET 0.000000 10.434715 0.000000
							CHANNELS 3 Zrotation Yrotation Xrotation
							JOINT RightForeArm
							{
								OFFSET -0.000000 29.628420 -0.000000
								CHANNELS 3 Zrotation Yrotation Xrotation
								JOINT RightHand
								{
									OFFSET 0.000000 22.857611 -0.000000
									CHANNELS 3 Zrotation Yrotation Xrotation
									JOINT RightHandThumb1
									{
										OFFSET -2.867323 3.959563 2.944291
										CHANNELS 3 Zrotation Yrotation Xrotation
										JOINT RightHandThumb2
										{
											OFFSET -0.000000 3.350399 0.000000
											CHANNELS 3 Zrotation Yrotation Xrotation
											JOINT RightHandThumb3
											{
												OFFSET -0.000000 3.756509 0.000000
												CHANNELS 3 Zrotation Yrotation Xrotation
												JOINT RightHandThumb4
												{
													OFFSET -0.000000 3.147345 0.000000
													CHANNELS 3 Zrotation Yrotation Xrotation
													End Site
													{
														OFFSET 0.000000 0.000000 0.000000
													}
												}
											}
										}
									}
									JOINT RightHandIndex1
									{
										OFFSET -0.086752 10.030893 2.345280
										CHANNELS 3 Zrotation Yrotation Xrotation
										JOINT RightHandIndex2
										{
											OFFSET -0.000000 4.061090 -0.000000
											CHANNELS 3 Zrotation Yrotation Xrotation
											JOINT RightHandIndex3
											{
												OFFSET 0.000000 3.248873 -0.000000
												CHANNELS 3 Zrotation Yrotation Xrotation
												JOINT RightHandIndex4
												{
													OFFSET 0.000000 2.639709 -0.000000
													CHANNELS 3 Zrotation Yrotation Xrotation
													End Site
													{
														OFFSET 0.000000 0.000000 0.000000
													}
												}
											}
										}
									}
									JOINT RightHandMiddle1
									{
										OFFSET 0.104102 9.502952 0.006768
										CHANNELS 3 Zrotation Yrotation Xrotation
										JOINT RightHandMiddle2
										{
											OFFSET -0.000000 4.568727 -0.000000
											CHANNELS 3 Zrotation Yrotation Xrotation
											JOINT RightHandMiddle3
											{
												OFFSET -0.000000 3.654981 -0.000000
												CHANNELS 3 Zrotation Yrotation Xrotation
												JOINT RightHandMiddle4
												{
													OFFSET -0.000000 2.741236 -0.000000
													CHANNELS 3 Zrotation Yrotation Xrotation
													End Site
													{
														OFFSET 0.000000 0.000000 0.000000
													}
												}
											}
										}
									}
									JOINT RightHandRing1
									{
										OFFSET 0.086752 8.921708 -2.267442
										CHANNELS 3 Zrotation Yrotation Xrotation
										JOINT RightHandRing2
										{
											OFFSET -0.000000 4.061090 0.000000
											CHANNELS 3 Zrotation Yrotation Xrotation
											JOINT RightHandRing3
											{
												OFFSET 0.000000 3.654981 -0.000000
												CHANNELS 3 Zrotation Yrotation Xrotation
												JOINT RightHandRing4
												{
													OFFSET 0.000000 2.741236 -0.000000
													CHANNELS 3 Zrotation Yrotation Xrotation
													End Site
													{
														OFFSET 0.000000 0.000000 0.000000
													}
												}
											}
										}
									}
									JOINT RightHandPinky1
									{
										OFFSET -0.173504 7.976997 -4.467199
										CHANNELS 3 Zrotation Yrotation Xrotation
										JOINT RightHandPinky2
										{
											OFFSET -0.000000 3.350399 0.000000
											CHANNELS 3 Zrotation Yrotation Xrotation
											JOINT RightHandPinky3
											{
												OFFSET 0.000000 2.842763 -0.000000
												CHANNELS 3 Zrotation Yrotation Xrotation
												JOINT RightHandPinky4
												{
													OFFSET -0.000000 2.639709 0.000000
													CHANNELS 3 Zrotation Yrotation Xrotation
													End Site
													{
														OFFSET 0.000000 0.000000 0.000000
													}
												}
											}
										}
									}
									JOINT RightForeArmEnd
									{
										OFFSET 0.000000 0.000000 0.000000
										CHANNELS 3 Zrotation Yrotation Xrotation
										End Site
										{
											OFFSET 0.000000 0.000000 0.000000
										}
									}
								}
								JOINT RightArmEnd
								{
									OFFSET 0.000000 0.000000 0.000000
									CHANNELS 3 Zrotation Yrotation Xrotation
									End Site
									{
										OFFSET 0.000000 0.000000 0.000000
									}
								}
							}
						}
					}
					JOINT LeftShoulder
					{
						OFFSET 2.625389 11.175210 0.000000
						CHANNELS 3 Zrotation Yrotation Xrotation
						JOINT LeftArm
						{
							OFFSET -0.000000 10.813635 0.000000
							CHANNELS 3 Zrotation Yrotation Xrotation
							JOINT LeftForeArm
							{
								OFFSET 0.000000 28.724781 -0.000000
								CHANNELS 3 Zrotation Yrotation Xrotation
								JOINT LeftHand
								{
									OFFSET 0.644384 25.716167 -0.328871
									CHANNELS 3 Zrotation Yrotation Xrotation
									JOINT LeftHandThumb1
									{
										OFFSET 2.867323 3.959563 2.944291
										CHANNELS 3 Zrotation Yrotation Xrotation
										JOINT LeftHandThumb2
										{
											OFFSET 0.000000 3.350399 -0.000000
											CHANNELS 3 Zrotation Yrotation Xrotation
											JOINT LeftHandThumb3
											{
												OFFSET 0.000000 3.756509 0.000000
												CHANNELS 3 Zrotation Yrotation Xrotation
												JOINT LeftHandThumb4
												{
													OFFSET 0.000000 3.100000 0.000000
													CHANNELS 3 Zrotation Yrotation Xrotation
													End Site
													{
														OFFSET 0.000000 0.000000 0.000000
													}
												}
											}
										}
									}
									JOINT LeftHandIndex1
									{
										OFFSET 0.086752 10.030893 2.345280
										CHANNELS 3 Zrotation Yrotation Xrotation
										JOINT LeftHandIndex2
										{
											OFFSET 0.000000 4.061090 0.000000
											CHANNELS 3 Zrotation Yrotation Xrotation
											JOINT LeftHandIndex3
											{
												OFFSET -0.000000 3.248873 -0.000000
												CHANNELS 3 Zrotation Yrotation Xrotation
												JOINT LeftHandIndex4
												{
													OFFSET -0.000000 2.639709 -0.000000
													CHANNELS 3 Zrotation Yrotation Xrotation
													End Site
													{
														OFFSET 0.000000 0.000000 0.000000
													}
												}
											}
										}
									}
									JOINT LeftHandMiddle1
									{
										OFFSET -0.104102 9.502952 0.006768
										CHANNELS 3 Zrotation Yrotation Xrotation
										JOINT LeftHandMiddle2
										{
											OFFSET 0.000000 4.568727 0.000000
											CHANNELS 3 Zrotation Yrotation Xrotation
											JOINT LeftHandMiddle3
											{
												OFFSET -0.000000 3.654981 -0.000000
												CHANNELS 3 Zrotation Yrotation Xrotation
												JOINT LeftHandMiddle4
												{
													OFFSET -0.000000 2.741236 -0.000000
													CHANNELS 3 Zrotation Yrotation Xrotation
													End Site
													{
														OFFSET 0.000000 0.000000 0.000000
													}
												}
											}
										}
									}
									JOINT LeftHandRing1
									{
										OFFSET -0.086752 8.921708 -2.267442
										CHANNELS 3 Zrotation Yrotation Xrotation
										JOINT LeftHandRing2
										{
											OFFSET 0.000000 4.061090 0.000000
											CHANNELS 3 Zrotation Yrotation Xrotation
											JOINT LeftHandRing3
											{
												OFFSET -0.000000 3.654981 -0.000000
												CHANNELS 3 Zrotation Yrotation Xrotation
												JOINT LeftHandRing4
												{
													OFFSET -0.000000 2.741236 -0.000000
													CHANNELS 3 Zrotation Yrotation Xrotation
													End Site
													{
														OFFSET 0.000000 0.000000 0.000000
													}
												}
											}
										}
									}
									JOINT LeftHandPinky1
									{
										OFFSET 0.173504 7.976997 -4.467199
										CHANNELS 3 Zrotation Yrotation Xrotation
										JOINT LeftHandPinky2
										{
											OFFSET 0.000000 3.350399 0.000000
											CHANNELS 3 Zrotation Yrotation Xrotation
											JOINT LeftHandPinky3
											{
												OFFSET 0.000000 2.842763 0.000000
												CHANNELS 3 Zrotation Yrotation Xrotation
												JOINT LeftHandPinky4
												{
													OFFSET 0.000000 2.639709 -0.000000
													CHANNELS 3 Zrotation Yrotation Xrotation
													End Site
													{
														OFFSET 0.000000 0.000000 0.000000
													}
												}
											}
										}
									}
									JOINT LeftForeArmEnd
									{
										OFFSET 0.000000 0.000000 0.000000
										CHANNELS 3 Zrotation Yrotation Xrotation
										End Site
										{
											OFFSET 0.000000 0.000000 0.000000
										}
									}
								}
								JOINT LeftArmEnd
								{
									OFFSET 0.000000 0.000000 0.000000
									CHANNELS 3 Zrotation Yrotation Xrotation
									End Site
									{
										OFFSET 0.000000 0.000000 0.000000
									}
								}
							}
						}
					}
				}
			}
		}
	}
	JOINT RightUpLeg
	{
		OFFSET -11.289943 0.000000 -0.000000
		CHANNELS 3 Zrotation Yrotation Xrotation
		JOINT RightLeg
		{
			OFFSET -0.000000 -38.200325 -0.000000
			CHANNELS 3 Zrotation Yrotation Xrotation
			JOINT RightFoot
			{
				OFFSET -0.000000 -39.900856 0.000000
				CHANNELS 3 Zrotation Yrotation Xrotation
				JOINT RightToeBase
				{
					OFFSET 0.000000 -0.000000 15.261641
					CHANNELS 3 Zrotation Yrotation Xrotation
					JOINT RightToeBaseEnd
					{
						OFFSET -0.000000 -0.000000 7.370709
						CHANNELS 3 Zrotation Yrotation Xrotation
						End Site
						{
							OFFSET 0.000000 0.000000 0.000000
						}
					}
				}
				JOINT RightLegEnd
				{
					OFFSET 0.000000 0.000000 0.000000
					CHANNELS 3 Zrotation Yrotation Xrotation
					End Site
					{
						OFFSET 0.000000 0.000000 0.000000
					}
				}
			}
			JOINT RightUpLegEnd
			{
				OFFSET 0.000000 0.000000 0.000000
				CHANNELS 3 Zrotation Yrotation Xrotation
				End Site
				{
					OFFSET 0.000000 0.000000 0.000000
				}
			}
		}
	}
	JOINT LeftUpLeg
	{
		OFFSET 11.315661 -0.000000 0.000000
		CHANNELS 3 Zrotation Yrotation Xrotation
		JOINT LeftLeg
		{
			OFFSET -0.000000 -38.200325 -0.000000
			CHANNELS 3 Zrotation Yrotation Xrotation
			JOINT LeftFoot
			{
				OFFSET -0.000000 -39.900856 0.000000
				CHANNELS 3 Zrotation Yrotation Xrotation
				JOINT LeftToeBase
				{
					OFFSET 0.000000 -0.000000 15.261641
					CHANNELS 3 Zrotation Yrotation Xrotation
					JOINT LeftToeBaseEnd
					{
						OFFSET -0.000000 0.000000 7.539996
						CHANNELS 3 Zrotation Yrotation Xrotation
						End Site
						{
							OFFSET 0.000000 0.000000 0.000000
						}
					}
				}
				JOINT LeftLegEnd
				{
					OFFSET 0.000000 0.000000 0.000000
					CHANNELS 3 Zrotation Yrotation Xrotation
					End Site
					{
						OFFSET 0.000000 0.000000 0.000000
					}
				}
			}
			JOINT LeftUpLegEnd
			{
				OFFSET 0.000000 0.000000 0.000000
				CHANNELS 3 Zrotation Yrotation Xrotation
				End Site
				{
					OFFSET 0.000000 0.000000 0.000000
				}
			}
		}
	}
}
MOTION
Frames: 4
Frame Time: 0.016667
0.327225 85.456291 8.060652 -1.060160 -0.454608 -23.207590 2.322709 -0.297220 12.236113 0.341520 -0.185955 6.095392 -2.927263 -0.107008 18.660194 -3.766547 -0.127707 10.148421 -8.554237 3.011372 10.670642 -1.052736 0.746531 -1.072306 -1.427619 -1.392408 -19.988150 0.000000 0.000000 0.000000 91.634735 -0.442339 15.425826 54.665524 -30.476999 24.470922 -0.226760 15.539892 21.119818 5.921650 20.191023 -2.405218 13.495595 32.597275 68.996590 0.000003 0.000003 0.000009 0.000134 -0.000001 0.000005 0.000000 0.000000 0.000000 13.796139 -10.938026 1.277707 9.837293 0.396116 1.450871 9.837299 -0.105893 1.372970 0.000000 0.000000 0.000000 13.018492 -5.780196 0.547168 9.259837 0.477044 0.562421 9.259580 -0.040827 0.482464 0.000000 0.000000 0.000000 14.759333 1.948519 1.684468 10.371669 -0.929828 -0.808298 10.370477 0.055660 -0.609709 0.000000 0.000000 0.000000 15.656369 10.308870 0.915056 10.776875 -1.765082 -2.455533 10.769448 0.171573 -2.081882 0.000000 0.000000 0.000000 0.000000 0.000000 0.000000 0.000000 0.000000 0.000000 -92.594154 0.517031 10.482300 -55.364445 20.044870 9.159415 -0.966445 -10.157828 39.026314 -1.252406 -30.847612 -11.535672 -13.450125 -32.590797 68.901459 0.011028 0.011022 -0.022262 0.011023 0.011028 -0.022273 0.000000 0.000000 0.000000 -11.776063 -6.462783 0.977572 -8.183229 0.418838 -1.217398 -8.182890 -0.087328 -1.146339 0.000000 0.000000 0.000000 -11.505368 -1.486834 0.105365 -8.159037 0.488683 -0.513053 -8.158793 0.006084 -0.433014 0.000000 0.000000 0.000000 -14.670410 7.057579 0.049814 -10.405230 -0.938801 0.816612 -10.403862 0.035557 0.635699 0.000000 0.000000 0.000000 -17.068953 15.932078 -0.778814 -11.779098 -1.717910 2.681325 -11.773773 0.235106 2.277516 0.000000 0.000000 0.000000 0.000000 0.000000 0.000000 0.000000 0.000000 0.000000 -5.285096 -1.941737 14.891479 -0.561212 -0.964231 30.047485 4.622950 -4.876317 6.481491 -0.907080 1.864290 -16.513636 0.000000 0.000000 0.000000 0.000000 0.000000 0.000000 0.000000 0.000000 0.000000 4.159544 -1.943718 10.882134 0.172503 0.240085 35.792629 -0.279231 6.748767 5.369925 0.530027 -0.512076 -20.503864 0.000000 0.000000 0.000000 0.000000 0.000000 0.000000 0.000000 0.000000 0.000000 
0.264843 85.308838 7.343339 -0.660645 -0.196982 -22.449472 1.333084 -0.225308 12.040718 0.634479 -0.140395 6.890890 -3.194424 0.474031 17.254267 -2.966534 -0.169461 9.133920 -9.150701 3.934983 10.630450 -2.105454 0.323934 -1.753802 -1.197394 -0.319593 -19.040546 0.000000 0.000000 0.000000 91.690720 -0.210918 15.083777 54.975365 -28.743973 22.684803 0.285871 16.868193 20.512695 4.242076 17.700775 -0.529911 -5.688801 0.896199 47.136799 -0.000008 0.000005 12.794688 0.000014 0.000055 9.322147 0.000018 0.000005 -0.000018 14.543346 1.063375 -1.199474 9.378492 0.043498 0.137626 9.466813 0.103956 0.125518 -0.000021 -0.000002 0.000000 12.631294 0.418461 -3.094393 8.570837 -0.017676 0.028859 8.419452 0.029329 0.040771 0.000010 -0.000043 0.000026 13.081792 -0.531211 -2.933599 9.718572 0.034099 0.043619 9.515121 -0.054364 0.031100 -0.000006 0.000292 0.000001 13.254075 -1.412665 -4.854841 10.172293 -0.061299 0.426914 9.962445 -0.283263 0.287171 -0.000636 0.000010 0.000040 0.000000 0.000000 0.000000 0.000000 0.000000 0.000000 -89.994286 -0.280955 10.711950 -57.130638 21.102985 7.186263 -1.064087 -9.105502 40.355610 1.757353 -29.917805 -6.036369 5.950638 -0.879238 47.111221 0.000015 0.000020 13.171123 -0.000140 -0.000004 9.594496 -0.000121 -0.000016 0.000429 -12.121268 1.043511 -0.470029 -9.173559 -0.041337 -0.143968 -9.158884 0.049754 -0.139818 0.000013 0.000328 0.000016 -12.516919 0.435260 -2.673198 -8.636058 -0.049778 -0.056114 -8.479015 0.008452 -0.044897 0.000735 -0.000044 0.000033 -15.170852 -0.513227 -3.268632 -9.631649 0.083253 0.088768 -9.584756 -0.021556 0.084315 0.000299 -0.000010 -0.000002 -16.031988 -1.466955 -4.764682 -10.178926 0.172993 0.298678 -9.970453 -0.094396 0.289085 0.000511 -0.000016 -0.000051 0.000000 0.000000 0.000000 0.000000 0.000000 0.000000 -6.973063 0.840801 14.233221 -0.424279 -0.883376 26.888435 3.671971 -4.619648 7.854714 -0.926540 1.779406 -16.814375 0.000000 0.000000 0.000000 0.000000 0.000000 0.000000 0.000000 0.000000 0.000000 3.521928 -2.190844 11.149057 0.290108 0.279496 35.378212 -0.307347 7.873127 4.616234 0.378767 -0.915312 -19.857082 0.000000 0.000000 0.000000 0.000000 0.000000 0.000000 0.000000 0.000000 0.000000 
0.250538 85.316269 7.365381 -0.635430 -0.214493 -22.443110 1.340557 -0.219319 12.020507 0.638352 -0.129288 6.890312 -3.147929 0.419489 17.249718 -2.930273 -0.153942 9.053905 -9.199248 4.011005 10.713263 -2.042938 0.438847 -1.832470 -1.221873 -0.345547 -19.077480 0.000000 0.000000 0.000000 91.738457 -0.211972 15.093898 54.989532 -28.844925 22.765980 0.321568 17.031498 20.381697 4.441976 17.749746 -0.864164 -5.711788 0.897338 47.144073 0.000001 0.000012 12.844234 0.000013 0.000053 9.375692 0.000035 0.000013 -0.000040 14.307414 1.112127 -1.668899 9.259295 0.046254 0.107389 9.355389 0.108176 0.096602 -0.000016 0.000005 -0.000008 12.436409 0.438494 -3.485576 8.461744 -0.018172 0.020286 8.312874 0.031174 0.033701 0.000029 -0.000083 0.000021 12.933711 -0.555543 -3.334266 9.571797 0.037821 0.050361 9.376954 -0.055414 0.037140 -0.000023 0.000058 -0.000017 13.172307 -1.477995 -5.190797 10.002786 -0.055027 0.431811 9.793271 -0.289729 0.288489 -0.000590 0.000011 0.000013 0.000000 0.000000 0.000000 0.000000 0.000000 0.000000 -90.142639 -0.272634 10.612630 -57.152035 21.209719 7.355351 -1.108877 -9.055526 40.208324 1.560651 -29.388773 -5.948205 5.988255 -0.886699 47.127949 0.000018 0.000036 13.254953 -0.000157 0.000000 9.655826 -0.000067 -0.000003 0.000596 -11.925361 1.096515 -0.710373 -9.133049 -0.038578 -0.116115 -9.130564 0.055672 -0.121397 0.000017 0.000249 0.000015 -12.309145 0.457821 -2.866360 -8.580832 -0.050659 -0.048390 -8.445524 0.009358 -0.038570 0.000629 -0.000036 -0.000008 -15.022887 -0.538242 -3.437809 -9.582804 0.085785 0.082185 -9.519886 -0.022498 0.079382 0.000343 0.000010 0.000004 -15.905596 -1.539338 -4.869759 -10.109319 0.178214 0.283866 -9.908214 -0.097787 0.274696 0.000602 0.000005 -0.000051 0.000000 0.000000 0.000000 0.000000 0.000000 0.000000 -6.912957 0.863380 14.191580 -0.424316 -0.880906 26.834641 3.556120 -4.517299 7.977195 -0.937658 1.749441 -16.856255 0.000000 0.000000 0.000000 0.000000 0.000000 0.000000 0.000000 0.000000 0.000000 3.486848 -2.121795 11.243880 0.290448 0.272451 35.283031 -0.250059 7.933044 4.616570 0.370083 -0.889481 -19.893259 0.000000 0.000000 0.000000 0.000000 0.000000 0.000000 0.000000 0.000000 0.000000 
0.229351 85.327538 7.399617 -0.622494 -0.237156 -22.439926 1.349562 -0.209759 12.006799 0.665738 -0.127130 6.829484 -3.119500 0.387987 17.280649 -2.898391 -0.148978 8.992957 -9.204521 4.021863 10.873688 -1.995161 0.496610 -1.824703 -1.223038 -0.358047 -19.117924 0.000000 0.000000 0.000000 91.820747 -0.221837 15.076199 54.924385 -28.961906 22.882587 0.331090 17.065254 20.115421 4.601293 17.634478 -1.080061 -5.720974 0.899273 47.149048 0.000003 0.000014 12.883246 0.000011 0.000054 9.410578 0.000035 0.000013 -0.000040 14.187546 1.128699 -2.012094 9.210793 0.048280 0.087396 9.311885 0.110845 0.076243 -0.000014 0.000005 -0.000010 12.339315 0.445382 -3.769769 8.406315 -0.017860 0.015339 8.262332 0.031841 0.029206 0.000029 -0.000099 0.000023 12.818948 -0.563688 -3.606589 9.472682 0.040201 0.052688 9.288300 -0.055054 0.039260 -0.000023 -0.000070 -0.000015 13.095747 -1.497404 -5.405534 9.879983 -0.049627 0.420102 9.676127 -0.289568 0.278138 -0.000579 0.000010 -0.000000 0.000000 0.000000 0.000000 0.000000 0.000000 0.000000 -90.254692 -0.250111 10.522978 -57.038361 21.306421 7.527071 -1.131762 -8.942924 40.056698 1.289374 -28.919123 -5.910188 6.018494 -0.892405 47.140312 0.000016 0.000037 13.316560 -0.000166 0.000001 9.704644 -0.000084 -0.000003 0.000737 -11.766777 1.115262 -0.908111 -9.078171 -0.037440 -0.099726 -9.080490 0.058208 -0.110342 0.000015 0.000141 0.000016 -12.137121 0.466451 -3.020217 -8.515677 -0.051086 -0.044580 -8.393374 0.009511 -0.035294 0.000621 -0.000038 -0.000031 -14.865197 -0.547309 -3.572843 -9.522267 0.086581 0.081078 -9.452532 -0.022562 0.078481 0.000329 0.000010 0.000004 -15.763798 -1.564042 -4.948402 -10.043072 0.181278 0.285506 -9.843996 -0.097677 0.274629 0.000646 0.000004 -0.000052 0.000000 0.000000 0.000000 0.000000 0.000000 0.000000 -6.858912 0.888443 14.237906 -0.422550 -0.877080 26.692238 3.461856 -4.470571 8.104233 -0.948988 1.726022 -16.892830 0.000000 0.000000 0.000000 0.000000 0.000000 0.000000 0.000000 0.000000 0.000000 3.467056 -2.063833 11.394944 0.288593 0.269184 35.069851 -0.207174 8.018485 4.658837 0.368696 -0.874210 -19.900854 0.000000 0.000000 0.000000 0.000000 0.000000 0.000000 0.000000 0.000000 0.000000 
